<svg xmlns="http://www.w3.org/2000/svg" viewBox="0 0 24 24" width="24" height="24">
  <style>
    .background { fill: #1877F2; }
    .letter { fill: #FFFFFF; }
  </style>
  <rect class="background" width="24" height="24" rx="5"/>
  <path class="letter" d="M15.5 12c0-1.93-1.57-3.5-3.5-3.5S8.5 10.07 8.5 12c0 1.74 1.28 3.19 2.95 3.45v-2.45h-0.89V12h0.89v-0.77c0-0.88 0.52-1.36 1.32-1.36 0.38 0 0.78 0.07 0.78 0.07v0.86h-0.44c-0.43 0-0.57 0.27-0.57 0.55V12h0.97l-0.15 1h-0.82v2.45C14.22 15.19 15.5 13.74 15.5 12z"/>
</svg>